Coordinates
version=1
nRows=5
nColumns=63
inDegrees=yes

Units are S.I. units (second, meters, Newtons, ...)
If the header above contains a line with 'inDegrees', this indicates whether rotational values are in degrees (yes) or radians (no).

endheader
time	pelvis_tilt	pelvis_list	pelvis_rotation	pelvis_tx	pelvis_ty	pelvis_tz	hip_flexion_r	hip_adduction_r	hip_rotation_r	knee_angle_r	knee_angle_r_beta	ankle_angle_r	subtalar_angle_r	mtp_angle_r	hip_flexion_l	hip_adduction_l	hip_rotation_l	knee_angle_l	knee_angle_l_beta	ankle_angle_l	subtalar_angle_l	mtp_angle_l	L5_S1_Flex_Ext	L5_S1_Lat_Bending	L5_S1_axial_rotation	L4_L5_Flex_Ext	L4_L5_Lat_Bending	L4_L5_axial_rotation	L3_L4_Flex_Ext	L3_L4_Lat_Bending	L3_L4_axial_rotation	L2_L3_Flex_Ext	L2_L3_Lat_Bending	L2_L3_axial_rotation	L1_L2_Flex_Ext	L1_L2_Lat_Bending	L1_L2_axial_rotation	L1_T12_Flex_Ext	L1_T12_Lat_Bending	L1_T12_axial_rotation	Abs_r3	Abs_r2	Abs_r1	Abs_t1	Abs_t2	neck_flexion	neck_bending	neck_rotation	arm_flex_r	arm_add_r	arm_rot_r	elbow_flex_r	pro_sup_r	wrist_flex_r	wrist_dev_r	arm_flex_l	arm_add_l	arm_rot_l	elbow_flex_l	pro_sup_l	wrist_flex_l	wrist_dev_l
      0.00000000	      2.08817987	     -3.29358465	    106.81235061	      0.17205602	      0.78998608	      0.81123206	      9.42287304	      0.25099600	    -31.54957701	     16.07436690	      0.28055063	     29.87131631	     17.86382278	      0.00000000	     13.44979857	     -3.16509089	      2.76437981	     18.17375141	      0.31719180	     26.56344032	      3.57168078	      0.00000000	      0.17416573	      0.20078210	     -2.05294262	      0.32344317	      0.26704019	     -2.18125154	      0.28613687	      0.48818159	     -2.18125154	      0.19905401	      0.48818159	     -1.79632479	      0.16173029	      0.40943485	     -1.66801588	      0.09951830	      0.31101147	     -1.53970697	      1.24404836	      2.27128724	    -11.41785098	      0.00000000	      0.00000000	     16.54228910	      1.75366847	     -6.88090466	     25.64185404	      6.85432528	     89.72444517	     30.11337615	      3.93818555	    -15.73429008	     21.52397753	     13.37114743	      1.66489584	     70.96274617	     30.05718973	     41.55337811	      0.61298292	     23.75791829
      0.01694915	      1.83536625	     -3.13645693	    106.13141556	      0.17231607	      0.78909600	      0.80910635	      9.04501749	      0.11490172	    -30.92351533	     16.24753783	      0.28357303	     30.02620665	     17.67920760	      0.00000000	     12.87566356	     -2.89484843	      3.34151691	     18.07564741	      0.31547956	     27.05278335	      2.14058571	      0.00000000	      0.18139776	      0.16032690	     -1.69096073	      0.33687378	      0.21323478	     -1.79664577	      0.29801838	      0.38981883	     -1.79664577	      0.20731950	      0.38981883	     -1.47959064	      0.16844596	      0.32693862	     -1.37390559	      0.10365068	      0.24834637	     -1.26822055	      1.29570606	      1.81365001	     -9.40461628	      0.00000000	      0.00000000	     17.01810446	      1.80861417	     -8.45507123	     26.17538902	      7.03232862	     98.43465639	     29.34607542	      6.26144676	    -10.86721377	     23.42265482	     13.66816715	      1.54614876	     73.54225004	     30.16165805	     38.54636757	      1.40607894	     23.22906287
      0.03389831	      1.59997491	     -2.96050870	    105.61673132	      0.17249287	      0.78855826	      0.80746753	      8.69138144	     -0.02730910	    -30.48308824	     16.37310231	      0.28576454	     30.13876433	     17.55085753	      0.00000000	     12.35604761	     -2.61836709	      3.98297171	     17.97464342	      0.31371671	     27.13952014	      0.57252399	      0.00000000	      0.18298287	      0.12676855	     -1.41696393	      0.33981748	      0.16860217	     -1.50552417	      0.30062255	      0.30822504	     -1.50552417	      0.20913112	      0.30822504	     -1.23984343	      0.16991789	      0.25850642	     -1.15128319	      0.10455641	      0.19636448	     -1.06272294	      1.30702832	      1.43403115	     -7.88072826	      0.00000000	      0.00000000	     17.30430502	      2.12139454	     -8.85145358	     26.67435458	      7.43212518	    103.98115426	     28.86823216	     10.28328974	     -7.34488385	     24.34902186	     14.28240995	      1.32727450	     76.72509360	     30.53861843	     35.48910348	      2.03108510	     22.86105670
      0.05084746	      1.33153898	     -2.79772209	    105.07098762	      0.17286434	      0.78838266	      0.80616392	      8.40185066	     -0.20763117	    -29.94532116	     16.48841888	      0.28777720	     30.11992345	     17.47388364	      0.00000000	     11.85456854	     -2.32673687	      4.53654025	     17.81830649	      0.31098812	     26.83543836	     -1.03247418	      0.00000000	      0.18045397	      0.09169907	     -1.18283113	      0.33512106	      0.12195976	     -1.25675808	      0.29646782	      0.22295712	     -1.25675808	      0.20624084	      0.22295712	     -1.03497724	      0.16756955	      0.18699274	     -0.96105030	      0.10311140	      0.14204186	     -0.88712335	      1.28896464	      1.03731821	     -6.57855192	      0.00000000	      0.00000000	     17.33699370	      2.44843043	     -8.60411291	     26.92112552	      7.62760859	    105.66003059	     28.86613017	     15.60017414	     -5.55889392	     24.95184744	     14.87446357	      1.12735318	     79.06222639	     30.95797267	     33.81811152	      2.93878352	     22.80027606
      0.06779661	      1.04010122	     -2.65574613	    104.52569834	      0.17349440	      0.78843675	      0.80504423	      8.16802522	     -0.41369949	    -29.53443047	     16.58899429	      0.28953257	     30.18232808	     17.49265931	      0.00000000	     11.38914079	     -2.11715766	      4.34642453	     17.62442072	      0.30760417	     26.48347863	     -1.91924928	      0.00000000	      0.17522893	      0.05205101	     -1.00601958	      0.32541764	      0.06922784	     -1.06889580	      0.28788361	      0.12655682	     -1.06889580	      0.20026914	      0.12655682	     -0.88026713	      0.16271758	      0.10614242	     -0.81739091	      0.10012581	      0.08062701	     -0.75451469	      1.25164271	      0.58881143	     -5.59517910	      0.00000000	      0.00000000	     17.28337677	      3.06857897	     -7.77218827	     27.14633611	      7.64815158	    105.25890036	     29.46599782	     17.81716437	     -6.25491513	     25.43252186	     15.20514070	      0.84428549	     79.69153178	     31.59798148	     34.37451731	      3.85078636	     23.34881674
